<svg width="719" height="481" viewBox="0 0 719 481" fill="none" xmlns="http://www.w3.org/2000/svg">
<path d="M532.643 374.904C532.643 378.436 533.231 380.986 534.408 382.556C535.782 383.929 537.351 384.615 539.117 384.615C540.882 384.615 542.354 383.929 543.531 382.556C544.905 380.986 545.591 378.436 545.591 374.904V216.585H592.675V371.079C592.675 388.931 587.868 402.468 578.255 411.688C568.642 420.909 555.302 425.519 538.234 425.519C521.363 425.519 508.316 421.007 499.096 411.983C490.071 402.762 485.559 389.127 485.559 371.079V216.585H532.643V374.904Z" fill="#292929"/>
<path d="M68.7011 340.768H71.938L77.8231 216.585H138.15V422.577H94.891L100.188 299.276H96.9511L84.8858 422.577H55.4582L43.0992 299.276H39.8622L45.4529 422.577H2.19501V216.585H62.8152L68.7011 340.768Z" fill="#292929"/>
<path d="M358.648 257.49H330.397V422.577H283.314V257.49H254.769V216.585H358.648V257.49Z" fill="#292929"/>
<path d="M415.132 296.334H427.786V216.291H474.576V422.577H427.786V337.237H415.132V422.577H368.049V216.291H415.132V296.334Z" fill="#292929"/>
<path fill-rule="evenodd" clip-rule="evenodd" d="M657.065 216.291C674.329 216.291 687.669 220.901 697.086 230.122C706.503 239.146 711.212 252.977 711.212 271.614V272.792C711.212 281.227 710.231 288.682 708.269 295.156C706.503 301.434 704.149 306.731 701.206 311.047C698.264 315.167 695.026 318.404 691.495 320.758C687.964 322.916 684.531 324.093 681.196 324.289V327.526C684.531 327.722 687.964 329.096 691.495 331.646C695.026 334.001 698.264 337.336 701.206 341.652C704.149 345.968 706.503 351.264 708.269 357.542C710.231 363.624 711.212 370.49 711.212 378.141V380.496C711.212 388.931 711.31 396.484 711.506 403.154C711.898 409.825 712.781 416.299 714.154 422.577H667.365C665.992 416.299 665.108 409.727 664.716 402.861C664.52 395.798 664.422 388.245 664.422 380.201V356.365C664.422 352.638 663.833 350.088 662.656 348.714C661.479 347.145 659.419 346.36 656.476 346.36H651.474V422.577H604.39V216.291H657.065ZM651.474 305.456H656.476C659.419 305.456 661.479 304.671 662.656 303.102C663.833 301.532 664.422 298.883 664.422 295.156V267.2C664.422 263.669 663.833 261.118 662.656 259.549C661.479 257.98 659.419 257.195 656.476 257.195H651.474V305.456Z" fill="#292929"/>
<path fill-rule="evenodd" clip-rule="evenodd" d="M253.011 422.521H205.928L203.574 375.732H192.98L190.625 422.521H143.542L162.813 0.747428H236.087L253.011 422.521ZM191.103 333.308H205.005L202.81 72.0889H193.298L191.103 333.308Z" fill="#292929"/>
<path d="M425.814 158.319C425.814 161.85 426.402 164.401 427.579 165.97C428.952 167.344 430.522 168.03 432.287 168.03C434.053 168.03 435.525 167.344 436.702 165.97C438.075 164.401 438.762 161.85 438.762 158.319V0H485.846V154.493C485.846 172.346 481.039 185.882 471.426 195.103C461.813 204.323 448.473 208.934 431.405 208.934C414.533 208.934 401.487 204.422 392.266 195.397C383.242 186.177 378.73 172.542 378.73 154.493V0H425.814V158.319Z" fill="#292929"/>
<path d="M68.7011 124.183H71.938L77.8231 0H138.15V205.991H94.891L100.188 82.6908H96.9511L84.8858 205.991H55.4582L43.0992 82.6908H39.8622L45.4529 205.991H2.19501V0H62.8152L68.7011 124.183Z" fill="#292929"/>
<path d="M329.809 124.183H332.457L320.981 0H368.064V205.991H316.861L295.968 82.6908H293.319L303.618 205.991H256.535V0H307.739L329.809 124.183Z" fill="#292929"/>
<path d="M10.1209 471.829H2.2828V445.195H10.1209C15.2955 445.195 17.8828 447.668 17.8828 452.615V464.41C17.8828 469.356 15.2955 471.829 10.1209 471.829ZM6.62037 449V468.024H10.0448C11.2877 468.024 12.1755 467.745 12.7082 467.187C13.2662 466.629 13.5452 465.729 13.5452 464.486V452.539C13.5452 451.296 13.2662 450.395 12.7082 449.837C12.1755 449.279 11.2877 449 10.0448 449H6.62037ZM37.7282 471.829H33.3907V445.195H37.7282V471.829ZM53.3044 464.714V452.386C53.3044 449.977 53.9766 448.112 55.321 446.793C56.6654 445.474 58.5679 444.815 61.0283 444.815C63.4888 444.815 65.3913 445.487 66.7357 446.831C68.1054 448.15 68.7903 450.002 68.7903 452.386V453.832H64.7191V452.196C64.7191 451.029 64.4147 450.141 63.8059 449.533C63.1971 448.924 62.322 448.619 61.1805 448.619C60.0391 448.619 59.164 448.924 58.5552 449.533C57.9464 450.141 57.642 451.029 57.642 452.196V464.828C57.642 465.995 57.9464 466.883 58.5552 467.492C59.164 468.1 60.0391 468.405 61.1805 468.405C62.322 468.405 63.1971 468.1 63.8059 467.492C64.4147 466.883 64.7191 465.995 64.7191 464.828V460.871H61.3708V456.914H68.7903V464.714C68.7903 467.099 68.1181 468.95 66.7737 470.269C65.4293 471.563 63.5269 472.21 61.0664 472.21C58.6059 472.21 56.6908 471.563 55.321 470.269C53.9766 468.95 53.3044 467.099 53.3044 464.714ZM88.5739 471.829H84.2363V445.195H88.5739V471.829ZM113.434 471.829H109.096V449H103.237V445.195H119.255V449H113.434V471.829ZM147.727 471.829H143.276L142.21 466.655H135.171L134.106 471.829H129.997L135.894 445.195H141.754L147.727 471.829ZM138.672 449.723L135.97 462.888H141.411L138.672 449.723ZM175.985 471.829H162.325V445.195H166.663V468.024H175.985V471.829ZM212.777 471.829H208.972V445.195H215.136L219.588 465.019L224.002 445.195H230.204V471.829H226.056V450.864L221.224 471.829H217.609L212.777 450.864V471.829ZM262.498 471.829H258.046L256.981 466.655H249.942L248.876 471.829H244.767L250.665 445.195H256.524L262.498 471.829ZM253.442 449.723L250.741 462.888H256.182L253.442 449.723ZM281.434 471.829H277.096V445.195H284.668C287.28 445.195 289.221 445.74 290.489 446.831C291.758 447.922 292.392 449.609 292.392 451.892V452.767C292.392 455.785 291.136 457.688 288.625 458.474V458.588C289.944 458.893 290.908 459.552 291.517 460.567C292.125 461.581 292.43 463.04 292.43 464.942V468.139C292.43 469.686 292.607 470.916 292.962 471.829H288.549C288.244 471.018 288.092 469.787 288.092 468.139V464.638C288.092 463.192 287.788 462.178 287.179 461.594C286.57 460.985 285.518 460.681 284.021 460.681H281.434V471.829ZM281.434 449V456.914H284.059C285.454 456.914 286.469 456.622 287.103 456.039C287.737 455.456 288.054 454.542 288.054 453.299V452.424C288.054 451.232 287.775 450.37 287.217 449.837C286.684 449.279 285.822 449 284.63 449H281.434ZM324.987 471.829H320.345L315.247 459.159L312.393 463.306V471.829H308.055V445.195H312.393V457.219L320.421 445.195H324.873L318.214 455.164L324.987 471.829ZM353.65 471.829H339.572V445.195H353.65V449H343.909V456.419H351.786V460.224H343.909V468.024H353.65V471.829ZM377.464 471.829H373.127V449H367.267V445.195H383.286V449H377.464V471.829ZM412.001 471.829H397.923V445.195H412.001V449H402.261V456.419H410.137V460.224H402.261V468.024H412.001V471.829ZM431.288 471.829H426.95V445.195H434.522C437.135 445.195 439.075 445.74 440.343 446.831C441.612 447.922 442.246 449.609 442.246 451.892V452.767C442.246 455.785 440.99 457.688 438.479 458.474V458.588C439.798 458.893 440.762 459.552 441.371 460.567C441.98 461.581 442.284 463.04 442.284 464.942V468.139C442.284 469.686 442.462 470.916 442.817 471.829H438.403C438.099 471.018 437.946 469.787 437.946 468.139V464.638C437.946 463.192 437.642 462.178 437.033 461.594C436.424 460.985 435.372 460.681 433.875 460.681H431.288V471.829ZM431.288 449V456.914H433.913C435.308 456.914 436.323 456.622 436.957 456.039C437.591 455.456 437.908 454.542 437.908 453.299V452.424C437.908 451.232 437.629 450.37 437.071 449.837C436.539 449.279 435.676 449 434.484 449H431.288ZM484.34 463.192C483.604 463.928 482.691 464.296 481.6 464.296C480.535 464.296 479.609 463.928 478.823 463.192C478.087 462.457 477.719 461.531 477.719 460.415C477.719 459.299 478.087 458.373 478.823 457.637C479.609 456.901 480.535 456.534 481.6 456.534C482.691 456.534 483.604 456.914 484.34 457.675C485.075 458.411 485.443 459.324 485.443 460.415C485.443 461.48 485.075 462.406 484.34 463.192ZM529.391 471.829H521.21V445.195H528.896C534.045 445.195 536.62 447.389 536.62 451.778V452.272C536.62 455.088 535.415 456.901 533.005 457.713V457.827C535.77 458.614 537.153 460.694 537.153 464.067V464.6C537.153 467.06 536.519 468.887 535.25 470.079C533.982 471.246 532.029 471.829 529.391 471.829ZM525.548 449V456.229H528.287C529.682 456.229 530.697 455.963 531.331 455.43C531.965 454.872 532.282 453.997 532.282 452.805V452.31C532.282 451.143 532.003 450.306 531.445 449.799C530.913 449.266 530.025 449 528.782 449H525.548ZM525.548 460.034V468.024H529.391C530.608 468.024 531.483 467.758 532.016 467.225C532.549 466.693 532.815 465.818 532.815 464.6V463.877C532.815 462.482 532.498 461.493 531.864 460.909C531.23 460.326 530.126 460.034 528.554 460.034H525.548ZM565.903 471.829H552.244V445.195H556.581V468.024H565.903V471.829ZM579.961 464.638V452.386C579.961 449.977 580.633 448.112 581.977 446.793C583.347 445.474 585.3 444.815 587.837 444.815C590.373 444.815 592.314 445.474 593.658 446.793C595.028 448.112 595.713 449.977 595.713 452.386V464.638C595.713 467.048 595.028 468.912 593.658 470.231C592.314 471.55 590.373 472.21 587.837 472.21C585.3 472.21 583.347 471.55 581.977 470.231C580.633 468.912 579.961 467.048 579.961 464.638ZM591.375 464.828V452.196C591.375 451.029 591.071 450.141 590.462 449.533C589.853 448.924 588.978 448.619 587.837 448.619C586.695 448.619 585.82 448.924 585.211 449.533C584.602 450.141 584.298 451.029 584.298 452.196V464.828C584.298 465.995 584.602 466.883 585.211 467.492C585.82 468.1 586.695 468.405 587.837 468.405C588.978 468.405 589.853 468.1 590.462 467.492C591.071 466.883 591.375 465.995 591.375 464.828ZM610.845 464.714V452.386C610.845 449.977 611.518 448.112 612.862 446.793C614.206 445.474 616.109 444.815 618.569 444.815C621.03 444.815 622.932 445.487 624.277 446.831C625.646 448.15 626.331 450.002 626.331 452.386V453.832H622.26V452.196C622.26 451.029 621.956 450.141 621.347 449.533C620.738 448.924 619.863 448.619 618.722 448.619C617.58 448.619 616.705 448.924 616.096 449.533C615.487 450.141 615.183 451.029 615.183 452.196V464.828C615.183 465.995 615.487 466.883 616.096 467.492C616.705 468.1 617.58 468.405 618.722 468.405C619.863 468.405 620.738 468.1 621.347 467.492C621.956 466.883 622.26 465.995 622.26 464.828V460.871H618.912V456.914H626.331V464.714C626.331 467.099 625.659 468.95 624.315 470.269C622.97 471.563 621.068 472.21 618.607 472.21C616.147 472.21 614.232 471.563 612.862 470.269C611.518 468.95 610.845 467.099 610.845 464.714ZM641.359 464.714V452.386C641.359 449.977 642.031 448.112 643.375 446.793C644.72 445.474 646.622 444.815 649.083 444.815C651.543 444.815 653.446 445.487 654.79 446.831C656.16 448.15 656.845 450.002 656.845 452.386V453.832H652.773V452.196C652.773 451.029 652.469 450.141 651.86 449.533C651.251 448.924 650.376 448.619 649.235 448.619C648.093 448.619 647.218 448.924 646.61 449.533C646.001 450.141 645.696 451.029 645.696 452.196V464.828C645.696 465.995 646.001 466.883 646.61 467.492C647.218 468.1 648.093 468.405 649.235 468.405C650.376 468.405 651.251 468.1 651.86 467.492C652.469 466.883 652.773 465.995 652.773 464.828V460.871H649.425V456.914H656.845V464.714C656.845 467.099 656.172 468.95 654.828 470.269C653.484 471.563 651.581 472.21 649.121 472.21C646.66 472.21 644.745 471.563 643.375 470.269C642.031 468.95 641.359 467.099 641.359 464.714ZM686.369 471.829H672.291V445.195H686.369V449H676.628V456.419H684.504V460.224H676.628V468.024H686.369V471.829ZM705.655 471.829H701.318V445.195H708.889C711.502 445.195 713.443 445.74 714.711 446.831C715.979 447.922 716.613 449.609 716.613 451.892V452.767C716.613 455.785 715.358 457.688 712.846 458.474V458.588C714.166 458.893 715.129 459.552 715.738 460.567C716.347 461.581 716.651 463.04 716.651 464.942V468.139C716.651 469.686 716.829 470.916 717.184 471.829H712.77C712.466 471.018 712.314 469.787 712.314 468.139V464.638C712.314 463.192 712.009 462.178 711.401 461.594C710.792 460.985 709.739 460.681 708.243 460.681H705.655V471.829ZM705.655 449V456.914H708.281C709.676 456.914 710.69 456.622 711.325 456.039C711.959 455.456 712.276 454.542 712.276 453.299V452.424C712.276 451.232 711.997 450.37 711.439 449.837C710.906 449.279 710.044 449 708.851 449H705.655Z" fill="#292929"/>
</svg>
